HIERARCHY
ROOT hip
{
  OFFSET 0 0 0
  CHANNELS 6 Xposition Yposition Zposition Zrotation Yrotation Xrotation
  JOINT abdomen
  {
    OFFSET 0 20.6881 -0.73152
    CHANNELS 3 Zrotation Xrotation Yrotation
    JOINT chest
    {
      OFFSET 0 11.7043 -0.48768
      CHANNELS 3 Zrotation Xrotation Yrotation
      JOINT neck
      {
        OFFSET 0 22.1894 -2.19456
        CHANNELS 3 Zrotation Xrotation Yrotation
        JOINT head
        {
          OFFSET -0.24384 7.07133 1.2192
          CHANNELS 3 Zrotation Xrotation Yrotation
          JOINT leftEye
          {
            OFFSET 4.14528 8.04674 8.04672
            CHANNELS 3 Zrotation Xrotation Yrotation
            End Site
            {
              OFFSET 1 0 0
            }
          }
          JOINT rightEye
          {
            OFFSET -3.6576 8.04674 8.04672
            CHANNELS 3 Zrotation Xrotation Yrotation
            End Site
            {
              OFFSET 1 0 0
            }
          }
        }
      }
      JOINT rCollar
      {
        OFFSET -2.68224 19.2634 -4.8768
        CHANNELS 3 Zrotation Xrotation Yrotation
        JOINT rShldr
        {
          OFFSET -8.77824 -1.95073 1.46304
          CHANNELS 3 Zrotation Xrotation Yrotation
          JOINT rForeArm
          {
            OFFSET -28.1742 -1.7115 0.48768
            CHANNELS 3 Zrotation Xrotation Yrotation
            JOINT rHand
            {
              OFFSET -22.5879 0.773209 7.07136
              CHANNELS 3 Zrotation Xrotation Yrotation
              JOINT rThumb1
              {
                OFFSET -1.2192 -0.487915 3.41376
                CHANNELS 3 Zrotation Xrotation Yrotation
                JOINT rThumb2
                {
                  OFFSET -3.37035 -0.52449 3.41376
                  CHANNELS 3 Zrotation Xrotation Yrotation
                  End Site
                  {
                    OFFSET -1.78271 -1.18214 1.43049
                  }
                }
              }
              JOINT rIndex1
              {
                OFFSET -7.75947 0.938293 5.60832
                CHANNELS 3 Zrotation Xrotation Yrotation
                JOINT rIndex2
                {
                  OFFSET -2.54057 -0.884171 1.56538
                  CHANNELS 3 Zrotation Xrotation Yrotation
                  End Site
                  {
                    OFFSET -1.62519 -0.234802 1.16502
                  }
                }
              }
              JOINT rMid1
              {
                OFFSET -8.24714 1.18213 3.41376
                CHANNELS 3 Zrotation Xrotation Yrotation
                JOINT rMid2
                {
                  OFFSET -3.10165 -0.590103 1.0647
                  CHANNELS 3 Zrotation Xrotation Yrotation
                  End Site
                  {
                    OFFSET -2.48547 -0.328903 0.83742
                  }
                }
              }
              JOINT rRing1
              {
                OFFSET -8.82822 0.546677 1.51678
                CHANNELS 3 Zrotation Xrotation Yrotation
                JOINT rRing2
                {
                  OFFSET -2.60934 -0.819778 -0.0198488
                  CHANNELS 3 Zrotation Xrotation Yrotation
                  End Site
                  {
                    OFFSET -2.33842 -0.294052 0.168128
                  }
                }
              }
              JOINT rPinky1
              {
                OFFSET -8.27202 -0.0477905 -0.4584
                CHANNELS 3 Zrotation Xrotation Yrotation
                JOINT rPinky2
                {
                  OFFSET -1.82734 -0.647385 -0.700984
                  CHANNELS 3 Zrotation Xrotation Yrotation
                  End Site
                  {
                    OFFSET -1.69225 -0.51767 -0.607171
                  }
                }
              }
            }
          }
        }
      }
      JOINT lCollar
      {
        OFFSET 2.68224 19.2634 -4.8768
        CHANNELS 3 Zrotation Xrotation Yrotation
        JOINT lShldr
        {
          OFFSET 8.77824 -1.95073 1.46304
          CHANNELS 3 Zrotation Xrotation Yrotation
          JOINT lForeArm
          {
            OFFSET 28.1742 -1.7115 0.48768
            CHANNELS 3 Zrotation Xrotation Yrotation
            JOINT lHand
            {
              OFFSET 22.5879 0.773209 7.07136
              CHANNELS 3 Zrotation Xrotation Yrotation
              JOINT lThumb1
              {
                OFFSET 1.2192 -0.487915 3.41376
                CHANNELS 3 Zrotation Xrotation Yrotation
                JOINT lThumb2
                {
                  OFFSET 3.37035 -0.52449 3.41376
                  CHANNELS 3 Zrotation Xrotation Yrotation
                  End Site
                  {
                    OFFSET 1.78271 -1.18214 1.43049
                  }
                }
              }
              JOINT lIndex1
              {
                OFFSET 7.75947 0.938293 5.60832
                CHANNELS 3 Zrotation Xrotation Yrotation
                JOINT lIndex2
                {
                  OFFSET 2.54057 -0.884171 1.56538
                  CHANNELS 3 Zrotation Xrotation Yrotation
                  End Site
                  {
                    OFFSET 1.62519 -0.234802 1.16502
                  }
                }
              }
              JOINT lMid1
              {
                OFFSET 8.24714 1.18213 3.41376
                CHANNELS 3 Zrotation Xrotation Yrotation
                JOINT lMid2
                {
                  OFFSET 3.10165 -0.590103 1.0647
                  CHANNELS 3 Zrotation Xrotation Yrotation
                  End Site
                  {
                    OFFSET 2.48547 -0.328903 0.83742
                  }
                }
              }
              JOINT lRing1
              {
                OFFSET 8.82822 0.546677 1.51678
                CHANNELS 3 Zrotation Xrotation Yrotation
                JOINT lRing2
                {
                  OFFSET 2.60934 -0.819778 -0.0198488
                  CHANNELS 3 Zrotation Xrotation Yrotation
                  End Site
                  {
                    OFFSET 2.33842 -0.294052 0.168128
                  }
                }
              }
              JOINT lPinky1
              {
                OFFSET 8.27202 -0.0477905 -0.4584
                CHANNELS 3 Zrotation Xrotation Yrotation
                JOINT lPinky2
                {
                  OFFSET 1.82734 -0.647385 -0.700984
                  CHANNELS 3 Zrotation Xrotation Yrotation
                  End Site
                  {
                    OFFSET 1.69225 -0.51767 -0.607171
                  }
                }
              }
            }
          }
        }
      }
    }
  }
  JOINT rButtock
  {
    OFFSET -8.77824 4.35084 1.2192
    CHANNELS 3 Zrotation Xrotation Yrotation
    JOINT rThigh
    {
      OFFSET 0 -1.70687 -2.19456
      CHANNELS 3 Zrotation Xrotation Yrotation
      JOINT rShin
      {
        OFFSET 0 -36.8199 0.73152
        CHANNELS 3 Zrotation Xrotation Yrotation
        JOINT rFoot
        {
          OFFSET 0.73152 -45.1104 -5.12064
          CHANNELS 3 Zrotation Xrotation Yrotation
          End Site
          {
            OFFSET -1.1221 -3.69964 12.103
          }
        }
      }
    }
  }
  JOINT lButtock
  {
    OFFSET 8.77824 4.35084 1.2192
    CHANNELS 3 Zrotation Xrotation Yrotation
    JOINT lThigh
    {
      OFFSET 0 -1.70687 -2.19456
      CHANNELS 3 Zrotation Xrotation Yrotation
      JOINT lShin
      {
        OFFSET 0 -36.8199 0.73152
        CHANNELS 3 Zrotation Xrotation Yrotation
        JOINT lFoot
        {
          OFFSET -0.73152 -45.1104 -5.12064
          CHANNELS 3 Zrotation Xrotation Yrotation
          End Site
          {
            OFFSET 1.1221 -3.69964 12.103
          }
        }
      }
    }
  }
}
MOTION
Frames:	7
Frame Time:	0.00833333
-4.46222 84.2564 37.7337 0.0 0.0 0.0 -1.24151 -0.00398119 -0.0340789 -0.342494 -0.00249264 -0.0593272 1.71912e-14 -2.38542e-15 -3.60297e-16 5.1392e-14 -6.36111e-15 -1.07002e-15 -0.0 0.0 0.0 -0.0 0.0 0.0 8.54674e-15 7.37677e-18 4.96962e-17 1.83307e-13 -1.2424e-16 -1.98785e-15 3.10735e-12 -9.25343e-13 -1.08139e-13 3.55655e-11 9.48228e-13 -6.45653e-13 8.38871e-11 5.00749e-14 -1.61572e-12 1.44868e-10 8.5875e-14 -2.80286e-12 8.38915e-11 5.04913e-14 -1.62526e-12 7.73091 5.47488 0.417314 8.38861e-11 4.95968e-14 -1.61572e-12 2.90554 0.965183 0.102902 8.38943e-11 5.05907e-14 -1.6189e-12 10.2786 0.731801 0.0259123 8.38824e-11 5.1684e-14 -1.60936e-12 2.22167 -0.733487 -0.20892 8.5493e-15 7.37677e-18 -3.47873e-16 1.78194e-13 8.07563e-17 -3.57812e-15 3.10984e-12 9.31306e-13 -9.22361e-14 3.55574e-11 -9.05588e-13 -6.36111e-13 8.38796e-11 5.49536e-14 -1.61254e-12 1.44858e-10 9.54166e-14 -2.78617e-12 8.38756e-11 5.60573e-14 -1.603e-12 -7.73091 5.47488 -0.417314 8.38798e-11 5.48646e-14 -1.61572e-12 -2.90554 0.965183 -0.102902 8.3874e-11 5.52621e-14 -1.61493e-12 -10.2786 0.731801 -0.0259123 8.38839e-11 5.725e-14 -1.62526e-12 -2.22167 -0.733487 0.20892 -2.03217e-16 0.0 -3.88251e-19 -0.453827 -1.92099 -0.00952734 -0.0091557 -2.07857 -0.075553 -0.487467 3.99699 0.136655 2.03217e-16 0.0 3.88251e-19 -1.43727 -5.97115 0.129662 -0.00126428 5.25795 -0.0454142 0.507812 0.710744 -0.0722737
-5.28454 84.0151 36.5591 -2.6742 -2.6628 1.6831 -0.567269 -0.480605 0.362137 -0.00555688 -0.741418 0.0721602 -0.643978 1.3757 -0.419106 1.05487 1.35476 -0.753263 -0.0 0.0 0.0 -0.0 0.0 0.0 7.68607e-15 -1.85907e-14 -2.83035e-15 23.2165 6.14095 -4.28888 -6.41859 -3.54664 9.24638 0.102676 7.1181 0.972722 3.15845e-11 1.42266e-11 9.01899e-12 5.44169e-11 2.39337e-11 1.64825e-11 3.15885e-11 1.42275e-11 9.01009e-12 7.73091 5.47488 0.417314 3.1583e-11 1.42275e-11 9.01804e-12 2.90554 0.965183 0.102902 3.15916e-11 1.42287e-11 9.01694e-12 10.2786 0.731801 0.0259123 3.15789e-11 1.42309e-11 9.02694e-12 2.22167 -0.733487 -0.20892 7.64648e-15 -1.85903e-14 -3.20074e-15 -23.699 7.24608 2.15453 5.56282 -2.86863 -8.28631 -0.0462398 4.77297 -0.662418 9.04743e-11 -5.91609e-11 -7.94287e-11 1.55373e-10 -1.03732e-10 -1.37883e-10 9.04711e-11 -5.91599e-11 -7.94176e-11 -7.73091 5.47488 -0.417314 9.04755e-11 -5.91595e-11 -7.943e-11 -2.90554 0.965183 -0.102902 9.04703e-11 -5.91597e-11 -7.94303e-11 -10.2786 0.731801 -0.0259123 9.04823e-11 -5.91564e-11 -7.94379e-11 -2.22167 -0.733487 0.20892 -2.03217e-16 0.0 -3.88251e-19 -1.4536 -0.711439 -0.464465 -0.00508333 -1.5204 -0.0474574 -0.537504 -0.785293 -2.61796 2.03217e-16 0.0 3.88251e-19 1.45644 -7.37235 -1.32884 -0.00999245 9.88346 -0.165224 0.841412 -4.22545 3.46404
-5.29999 84.0233 36.3848 -2.6659 -2.2062 1.9456 0.152108 -0.98435 0.780377 0.355111 -1.52272 0.211124 -1.30438 2.82848 -0.862748 2.21037 2.78743 -1.55056 -0.0 0.0 0.0 -0.0 0.0 0.0 6.68657e-15 -3.72944e-14 -6.45429e-15 48.7777 12.5172 -8.98762 -11.9748 -6.9881 19.1326 -0.0595714 14.6373 2.05241 -2.08412e-11 2.66191e-11 2.05398e-11 -3.62458e-11 4.47091e-11 3.72878e-11 -2.08377e-11 2.66206e-11 2.05315e-11 7.73091 5.47488 0.417314 -2.08432e-11 2.66215e-11 2.05378e-11 2.90554 0.965183 0.102902 -2.08342e-11 2.66232e-11 2.05389e-11 10.2786 0.731801 0.0259123 -2.08478e-11 2.66264e-11 2.05494e-11 2.22167 -0.733487 -0.20892 6.60138e-15 -3.72938e-14 -6.79595e-15 -49.3633 14.8725 4.54886 10.5509 -5.70116 -17.1119 0.0264881 9.815 -1.37793 9.87315e-11 -1.18224e-10 -1.6009e-10 1.68734e-10 -2.07376e-10 -2.77954e-10 9.87291e-11 -1.18223e-10 -1.60077e-10 -7.73091 5.47488 -0.417314 9.8734e-11 -1.18221e-10 -1.60089e-10 -2.90554 0.965183 -0.102902 9.87292e-11 -1.18222e-10 -1.60091e-10 -10.2786 0.731801 -0.0259123 9.87437e-11 -1.18217e-10 -1.60095e-10 -2.22167 -0.733487 0.20892 -2.03217e-16 0.0 -3.88251e-19 -2.49026 0.567456 -0.945609 -0.00137283 -0.930258 -0.0177724 -1.0916 -5.81562 -5.55851 2.03217e-16 0.0 3.88251e-19 4.43639 -8.84617 -2.88216 0.00255 14.7731 -0.29685 1.86302 -9.38369 7.28137
-5.32838 84.0573 35.8517 -2.5346 -0.837 2.7806 0.800995 -1.43359 1.15489 0.678497 -2.21923 0.335368 -1.87143 4.12622 -1.26022 3.27167 4.06146 -2.26485 -0.0 0.0 0.0 -0.0 0.0 0.0 5.96472e-15 -5.57867e-14 -8.59045e-15 72.5014 17.9997 -13.4631 -15.9315 -9.53319 28.1073 -0.46202 21.3287 3.10879 -7.30208e-11 4.25795e-11 3.02884e-11 -1.26484e-10 7.16293e-11 5.50532e-11 -7.30176e-11 4.25814e-11 3.02808e-11 7.73091 5.47488 0.417314 -7.30234e-11 4.25832e-11 3.02856e-11 2.90554 0.965183 0.102902 -7.3014e-11 4.25851e-11 3.02886e-11 10.2786 0.731801 0.0259123 -7.30281e-11 4.25892e-11 3.02995e-11 2.22167 -0.733487 -0.20892 5.84083e-15 -5.57858e-14 -8.90649e-15 -72.8329 21.6105 6.899 14.2665 -7.88737 -25.081 0.201324 14.3111 -2.04381 1.03664e-10 -1.77593e-10 -2.35061e-10 1.76402e-10 -3.11387e-10 -4.08076e-10 1.03662e-10 -1.77592e-10 -2.35047e-10 -7.73091 5.47488 -0.417314 1.03667e-10 -1.77588e-10 -2.35059e-10 -2.90554 0.965183 -0.102902 1.03663e-10 -1.7759e-10 -2.35061e-10 -10.2786 0.731801 -0.0259123 1.03679e-10 -1.77584e-10 -2.35063e-10 -2.22167 -0.733487 0.20892 -2.03217e-16 0.0 -3.88251e-19 -3.39553 1.70709 -1.37485 0.00141959 -0.40406 0.00868462 -2.02799 -10.2473 -8.25841 2.03217e-16 0.0 3.88251e-19 7.02689 -10.1528 -4.27859 0.0338372 19.1341 -0.421135 3.37074 -13.8793 10.8282
-5.33433 84.0588 35.8476 -2.5513 -0.837 2.7758 1.25975 -1.74683 1.41979 0.901503 -2.70381 0.422587 -2.24769 5.03719 -1.53952 4.02178 4.94157 -2.76678 -0.0 0.0 0.0 -0.0 0.0 0.0 5.93702e-15 -7.37503e-14 -7.00716e-15 89.5838 21.6504 -16.8113 -18.1917 -10.8941 34.4514 -0.905836 25.9748 3.9261 -1.24586e-10 6.74596e-11 3.56063e-11 -2.15663e-10 1.13912e-10 6.52189e-11 -1.24582e-10 6.74616e-11 3.56e-11 7.73091 5.47488 0.417314 -1.24588e-10 6.74638e-11 3.56031e-11 2.90554 0.965183 0.102902 -1.24579e-10 6.74657e-11 3.56079e-11 10.2786 0.731801 0.0259123 -1.24593e-10 6.74703e-11 3.5619e-11 2.22167 -0.733487 -0.20892 5.79166e-15 -7.37491e-14 -7.30534e-15 -89.5566 26.2487 8.7258 16.4819 -9.14284 -30.6968 0.388641 17.4499 -2.532 1.00283e-10 -2.37724e-10 -2.95807e-10 1.69836e-10 -4.16316e-10 -5.13324e-10 1.00282e-10 -2.37723e-10 -2.95792e-10 -7.73091 5.47488 -0.417314 1.00286e-10 -2.37719e-10 -2.95804e-10 -2.90554 0.965183 -0.102902 1.00283e-10 -2.37721e-10 -2.95807e-10 -10.2786 0.731801 -0.0259123 1.003e-10 -2.37714e-10 -2.95807e-10 -2.22167 -0.733487 0.20892 -2.03217e-16 0.0 -3.88251e-19 -4.01307 2.4992 -1.67338 0.00307571 -0.0377312 0.0270984 -2.93427 -13.2874 -10.2075 2.03217e-16 0.0 3.88251e-19 8.79736 -11.0598 -5.25706 0.06771 22.1737 -0.513064 4.7671 -16.9289 13.4152
-5.33479 84.0588 35.8426 -2.5475 -0.8397 2.7832 1.44831 -1.87068 1.53169 0.979749 -2.8923 0.457928 -2.3767 5.40865 -1.65205 4.30603 5.26931 -2.9684 -0.0 0.0 0.0 -0.0 0.0 0.0 7.46267e-15 -1.01275e-13 2.99109e-15 96.3926 23.0337 -18.1825 -18.975 -11.3138 36.9419 -1.11908 27.7726 4.26692 -1.98414e-10 1.14978e-10 4.54674e-11 -3.43157e-10 1.94641e-10 8.38976e-11 -1.9841e-10 1.1498e-10 4.54635e-11 7.73091 5.47488 0.417314 -1.98416e-10 1.14982e-10 4.54647e-11 2.90554 0.965183 0.102902 -1.98408e-10 1.14984e-10 4.54709e-11 10.2786 0.731801 0.0259123 -1.9842e-10 1.14988e-10 4.54821e-11 2.22167 -0.733487 -0.20892 7.31931e-15 -1.01273e-13 2.69408e-15 -96.1883 28.0614 9.50424 17.2725 -9.56269 -32.9069 0.477393 18.6772 -2.72948 9.68625e-11 -3.13884e-10 -3.56147e-10 1.63162e-10 -5.4877e-10 -6.17676e-10 9.68612e-11 -3.13883e-10 -3.56129e-10 -7.73091 5.47488 -0.417314 9.68631e-11 -3.13881e-10 -3.56145e-10 -2.90554 0.965183 -0.102902 9.6863e-11 -3.13881e-10 -3.56145e-10 -10.2786 0.731801 -0.0259123 9.68777e-11 -3.13875e-10 -3.56147e-10 -2.22167 -0.733487 0.20892 -2.03217e-16 0.0 -3.88251e-19 -4.24377 2.8047 -1.78853 0.00365352 0.104625 0.0342475 -3.34435 -14.46 -10.9809 2.03217e-16 0.0 3.88251e-19 9.49062 -11.4193 -5.63531 0.083731 23.3637 -0.550493 5.39083 -18.1103 14.4522
-5.33961 84.0589 35.8388 -2.5627 -0.8388 2.7867 1.44229 -1.85927 1.53421 0.953897 -2.86928 0.456159 -2.33355 5.39485 -1.64486 4.24954 5.20319 -2.95453 -0.0 0.0 0.0 -0.0 0.0 0.0 1.00702e-14 -1.35138e-13 1.88473e-14 95.6244 22.8872 -18.0257 -18.8835 -11.263 36.6481 -1.09147 27.5419 4.22268 -2.87043e-10 1.78184e-10 5.80618e-11 -4.96124e-10 3.02025e-10 1.07745e-10 -2.87039e-10 1.78184e-10 5.80612e-11 7.73091 5.47488 0.417314 -2.87045e-10 1.78186e-10 5.80602e-11 2.90554 0.965183 0.102902 -2.87038e-10 1.78187e-10 5.80677e-11 10.2786 0.731801 0.0259123 -2.87047e-10 1.7819e-10 5.80789e-11 2.22167 -0.733487 -0.20892 9.94561e-15 -1.35136e-13 1.85398e-14 -95.4406 27.8842 9.4332 17.1863 -9.51813 -32.6604 0.467169 18.5416 -2.70747 9.28613e-11 -4.0078e-10 -4.15267e-10 1.55465e-10 -6.99635e-10 -7.19772e-10 9.28597e-11 -4.00779e-10 -4.15246e-10 -7.73091 5.47488 -0.417314 9.28581e-11 -4.0078e-10 -4.15267e-10 -2.90554 0.965183 -0.102902 9.28619e-11 -4.00779e-10 -4.15264e-10 -10.2786 0.731801 -0.0259123 9.28727e-11 -4.00774e-10 -4.15267e-10 -2.22167 -0.733487 0.20892 -2.03217e-16 0.0 -3.88251e-19 -4.20244 2.7628 -1.77235 0.00357985 0.0870081 0.0333507 -3.29135 -14.323 -10.8771 2.03217e-16 0.0 3.88251e-19 9.4304 -11.3908 -5.58126 0.0816167 23.2327 -0.546311 5.31425 -18.0031 14.323
